# xmcd
#
# Track frame offsets:
#	150
#	48000
#	76200
#	111900
#	168825
#
# Disc length: 2639 seconds
#
# Revision: 1
# Processed by: cddbd v1.5.2PL0 Copyright (c) Steve Scherf et al.
# Submitted via: audiograbber 1.83.01
#
DISCID=2e0a4d05
DTITLE=Grateful Dead - 93-03-10 Rosemont Horizon, Rosemont IL
DYEAR=1900
DGENRE=
TTITLE0=Eyes Of The World
TTITLE1=Way To Go Home
TTITLE2=Lazy River Road
TTITLE3=Corinna
TTITLE4=Mind Left Body Jam
EXTD=
EXTT0=
EXTT1=
EXTT2=
EXTT3=
EXTT4=
PLAYORDER=
